# xmcd
#
# Track frame offsets:
#	150
#	9723
#	20590
#	30938
#	41958
#	56598
#	66978
#	76260
#	85803
#	97408
#	108728
#	119418
#	129615
#	141330
#	151903
#	161173
#
# Disc length: 2322 seconds
#
# Revision: 3
# Processed by: cddbd v1.5PL3 Copyright (c) Steve Scherf et al.
# Submitted via: EasyCDDAExtractor 6.5.0.1
#
DISCID=e1091010
DTITLE=Waylon Jennings - Waylon!
DYEAR=1900
DGENRE=Country
TTITLE0=Heartaches By The Number
TTITLE1=Tiger By The Tail
TTITLE2=Foolin' Round
TTITLE3=(That's What You Get) For Lovin' Me
TTITLE4=Folsom Prison Blues
TTITLE5=Busted
TTITLE6=Time To Bum Again
TTITLE7=Leavin' Town
TTITLE8=Yes Virginia
TTITLE9=Dream Baby
TTITLE10=You Beat All I Ever Saw
TTITLE11=It's All Over Now
TTITLE12=Born To Love You
TTITLE13=Down Came The World
TTITLE14=John's Back In Town
TTITLE15=Listen They're Playing My Song
EXTD=
EXTT0=
EXTT1=
EXTT2=
EXTT3=
EXTT4=
EXTT5=
EXTT6=
EXTT7=
EXTT8=
EXTT9=
EXTT10=
EXTT11=
EXTT12=
EXTT13=
EXTT14=
EXTT15=
PLAYORDER=
